<?xml version="1.0" encoding="utf-8"?>
<svg viewBox="566.447 40.697 101.178 94.266" xmlns="http://www.w3.org/2000/svg">
  <path d="M 430.859 414.384 C 443.199 414.764 459.209 394.114 463.039 384.484 C 467.939 374.444 470.489 365.914 478.419 355.504 C 486.129 345.384 471.049 345.394 465.459 349.884 C 459.609 354.564 456.079 365.684 449.439 368.934 C 444.259 371.484 439.129 364.014 437.449 360.054 C 434.939 354.124 432.669 346.454 430.969 339.004 C 428.399 330.394 428.209 318.504 421.709 312.544 C 420.329 311.524 418.809 311.214 417.199 312.134 C 414.719 313.534 413.789 316.574 414.479 319.314 C 416.679 328.114 418.559 335.854 419.779 344.854 C 420.169 347.724 419.049 348.774 417.609 348.434 C 416.149 346.654 414.999 344.724 414.029 342.694 C 409.969 334.244 409.579 315.084 400.649 310.794 C 394.939 309.444 395.879 317.054 396.849 321.044 C 398.869 329.334 402.289 338.544 403.409 346.584 C 403.919 349.014 404.079 351.514 401.429 351.874 C 396.809 343.214 395.259 327.644 387.089 321.134 C 385.449 320.064 384.399 319.864 382.689 320.354 C 380.479 323.374 381.279 326.984 382.689 330.854 C 382.909 331.344 383.139 331.834 383.359 332.314 C 386.659 341.524 391.589 351.554 393.799 360.694 C 393.649 360.654 392.359 359.814 389.899 356.844 C 385.089 351.054 382.819 344.134 376.789 338.614 C 372.229 334.434 369.239 342.244 370.809 345.804 C 374.449 354.124 383.469 359.964 387.189 368.284 C 393.029 381.334 391.839 398.864 401.799 410.164 C 407.109 416.194 413.859 411.684 419.559 412.444 C 423.279 412.934 427.079 414.094 430.859 414.384 Z" fill="#0cc706" stroke-width=".576" transform="matrix(-0.918278, 0, 0, 0.908559, 1007.743028, -241.534033)"/>
</svg>